# xmcd
#
# Track frame offsets: 
#        150
#        16991
#        32891
#        47224
#        63537
#        77719
#        91965
#        114237
#        125575
#        144085
#        162721
#        184171
#
# Disc length: 2600 seconds
#
# Revision: 0
# Processed by: cddbd v1.5.2PL0 Copyright (c) Steve Scherf et al.
# Submitted via: ExactAudioCopy v0.99pb5
#
DISCID=a00a260c
DTITLE=Hundred Year Flood - Poison
DYEAR=2008
DGENRE=Rock
TTITLE0=Hell or High Water
TTITLE1=Truly
TTITLE2=Poison
TTITLE3=Neck of the Woods
TTITLE4=Birdsongs
TTITLE5=Star
TTITLE6=Sara and Jane
TTITLE7=Surrender
TTITLE8=Down thru the Holler
TTITLE9=Grinding Wheel
TTITLE10=Electricity
TTITLE11=Never Forever
EXTD=
EXTT0=
EXTT1=
EXTT2=
EXTT3=
EXTT4=
EXTT5=
EXTT6=
EXTT7=
EXTT8=
EXTT9=
EXTT10=
EXTT11=
PLAYORDER=
